<svg width="258" height="109" viewBox="0 0 258 109" fill="none" xmlns="http://www.w3.org/2000/svg">
<path d="M26.4736 78.38V108.09H16.6936V78.38H9.14355V69.79H33.9836V78.38H26.4736Z" fill="#FF1226"/>
<path d="M53.9936 77.66C47.7336 77.66 43.5436 82.84 43.5436 88.84C43.5436 94.95 47.7336 100.23 54.1035 100.23C60.2635 100.23 64.4036 94.85 64.4036 89C64.3936 83.04 60.2536 77.66 53.9936 77.66ZM53.8936 108.81C43.0736 108.81 33.7635 100.43 33.7635 89.4C33.7635 86.55 34.2335 83.86 35.2635 81.22C35.8335 79.72 36.7636 78.22 37.7436 76.92C41.6736 71.74 47.4236 69.05 53.9436 69.05C65.1236 69.05 74.1836 77.64 74.1836 88.92C74.1836 100.27 65.1236 108.81 53.8936 108.81Z" fill="#FF1226"/>
<path d="M91.2436 78.38H87.0036V99.5H91.1936C97.8736 99.5 100.564 95.2 100.564 88.99C100.564 82.89 97.7636 78.38 91.2436 78.38ZM90.6236 108.09H77.2236V69.79H89.9036C96.8436 69.79 102.484 70.93 106.824 76.93C109.304 80.4 110.344 84.59 110.344 88.83C110.344 101.41 103.144 108.09 90.6236 108.09Z" fill="#FF1226"/>
<path d="M128.134 81.7H128.084H127.984L124.054 94.79H132.074L128.134 81.7ZM136.514 108.09L134.654 102.55H121.354L119.334 108.09H108.824L124.194 69.79H131.904L147.124 108.09H136.514Z" fill="#FF1226"/>
<path d="M161.694 94.17V108.09H151.904V94.17L140.474 69.79H151.084L156.774 85.16L162.514 69.79H173.024L161.694 94.17Z" fill="#FF1226"/>
<path d="M202.764 69.79H177.924V78.38H185.474V108.09H195.264V78.38H202.764V69.79Z" fill="#FF1226"/>
<path d="M215.854 69.79H206.074V108.09H215.854V69.79Z" fill="#FF1226"/>
<path d="M244.724 69.79L238.364 80.71L231.784 69.79H220.714L232.564 87.7L219.164 108.09H230.074L237.944 94.53L246.224 108.09H257.304L244.054 87.9L255.744 69.79H244.724Z" fill="#FF1226"/>
<path d="M140.773 83.01C140.873 82.82 140.193 82.8 139.913 82.73C139.923 82.78 139.923 82.82 139.933 82.87C140.053 83 140.333 83.05 140.773 83.01Z" fill="#333333"/>
<path d="M149.483 82.59C149.553 82.24 146.643 82.44 147.523 82.79C148.253 82.9 149.413 82.9 149.483 82.59Z" fill="#333333"/>
<path d="M145.213 83.03C145.573 82.87 145.633 82.91 145.753 82.73C145.263 82.73 145.083 82.78 145.193 82.89C145.203 82.94 145.213 82.99 145.213 83.03Z" fill="#333333"/>
<path d="M98.7534 85.08C98.5934 85.19 98.6634 85.26 98.9534 85.29C100.493 85.03 98.7134 84.78 98.7534 85.08Z" fill="#333333"/>
<path d="M115.023 84.46C115.023 84.48 115.023 84.49 115.033 84.5C115.033 84.49 115.033 84.47 115.023 84.46Z" fill="#333333"/>
<path d="M88.7134 85.92C88.9234 85.78 87.1334 85.58 87.1734 85.9C87.4434 85.93 88.4934 86.07 88.7134 85.92Z" fill="#333333"/>
<path d="M147.563 83.11C147.563 83.1 147.563 83.08 147.553 83.07C147.563 83.09 147.563 83.1 147.563 83.11Z" fill="#333333"/>
<path d="M147.553 83.06C147.623 83.57 149.723 83 147.553 83.06V83.06Z" fill="#333333"/>
<path d="M137.123 83.69C136.993 83.83 137.193 83.92 137.743 83.94C138.653 83.9 137.993 83.27 137.073 83.32C136.653 83.34 135.353 83.8 135.773 83.81C135.513 83.79 137.043 83.7 137.123 83.69Z" fill="#333333"/>
<path d="M159.883 83.44C160.043 83.58 160.383 83.63 160.893 83.58C162.263 83.11 156.823 82.59 157.533 83.38C157.933 82.91 159.413 83.16 159.883 83.44Z" fill="#333333"/>
<path d="M130.873 84.95C130.863 84.85 136.553 84.14 133.893 83.65C133.553 83.59 130.613 83.29 130.433 83.5C130.303 83.64 131.693 84.07 131.643 84.32C131.603 84.54 131.133 84.75 130.873 84.95Z" fill="#333333"/>
<path d="M96.6334 86.69C96.6434 86.74 96.6434 86.78 96.6534 86.83C99.1634 86.71 96.5834 86.34 96.6334 86.69Z" fill="#333333"/>
<path d="M135.513 84.73C134.693 84.84 133.843 84.97 133.233 85.11C134.043 85.12 135.553 85 135.513 84.73Z" fill="#333333"/>
<path d="M139.953 84.71C141.213 84.59 138.073 84.2 138.743 84.11C139.823 83.97 143.443 84.17 144.223 84.32C145.263 84.73 145.443 84.23 146.533 84.12C147.443 84.03 147.423 84.34 147.913 84.37C148.543 84.4 149.063 83.97 149.423 83.89C150.133 83.74 150.483 84.03 150.963 84.07C151.063 84.08 152.423 83.45 152.853 83.36C153.463 83.33 152.393 83.84 152.713 83.92C153.233 84.05 156.473 84.19 156.483 84.29C156.683 84.33 156.743 84.32 156.743 84.31C157.183 84.28 157.123 83.85 158.173 83.8C158.083 83.52 155.173 83.2 155.233 83.66C155.273 83.96 153.203 83.68 153.943 83.32C154.533 83.03 155.313 82.81 153.013 82.9C151.863 82.95 151.363 82.8 150.473 83.06C149.193 83.12 151.523 83.56 150.553 83.61C150.253 83.73 147.633 83.61 147.673 83.88C146.173 83.95 145.883 83.61 145.853 83.41C145.683 83.4 143.833 83.24 143.723 83.3C143.433 83.46 145.263 83.91 144.023 84.04C142.523 84.19 142.783 83.7 141.963 83.59C138.783 83.2 136.973 84.99 139.953 84.71Z" fill="#333333"/>
<path d="M89.6334 86.78C90.1234 87.17 91.3934 86.83 91.4634 87.35C93.0634 87.64 92.3534 87 92.9634 86.84C93.9234 86.59 94.3034 86.73 95.0134 86.7C95.0234 86.7 94.4034 86.46 95.1234 86.34C95.7134 86.24 98.2334 86.32 98.2934 86.3C98.6234 86.16 97.6534 85.62 97.6334 85.41C97.2834 85.58 95.8234 86.28 95.0934 86.15C94.1234 85.97 93.1134 85.49 91.8034 85.55C92.8034 85.95 90.0434 85.83 89.5034 85.8C89.5334 86.04 90.1034 85.95 90.1334 86.13C90.1634 86.36 89.3434 86.54 89.6334 86.78Z" fill="#333333"/>
<path d="M3.27344 91.91C3.27344 91.93 3.27344 91.94 3.28344 91.95C3.28344 91.94 3.27344 91.92 3.27344 91.91Z" fill="#333333"/>
<path d="M3.27344 91.9C3.34344 92.41 5.44344 91.84 3.27344 91.9V91.9Z" fill="#333333"/>
<path d="M160.093 84.95C161.983 85.55 161.783 84.01 160.093 84.95V84.95Z" fill="#333333"/>
<path d="M147.333 85.69C148.713 85.65 150.083 84.92 148.963 84.79C146.853 84.64 148.443 85.63 147.333 85.69Z" fill="#333333"/>
<path d="M123.183 83.74C123.173 83.74 123.183 83.75 123.203 83.76C123.203 83.74 123.203 83.73 123.183 83.74Z" fill="#333333"/>
<path d="M175.573 85.3C174.973 85.26 173.843 86.42 172.973 86.19C172.653 86.1 170.123 85.34 171.283 85.2C171.653 85.16 173.583 85.28 173.553 85.01C172.493 85.06 168.933 85.39 168.893 85.09C168.893 85.1 170.673 84.28 170.313 84.3C169.993 84.31 167.143 85.12 167.163 85.31C167.203 85.59 164.393 85.88 163.533 85.98C163.703 85.96 164.133 85.59 165.443 85.53C166.283 85.49 165.973 85.17 165.963 85.06C166.053 85.75 163.583 84.4 163.533 84.38C162.673 84.42 163.033 84.99 163.043 85.07C163.083 85.38 160.203 85.36 159.063 85.41C158.133 85.45 157.253 84.47 156.043 85.14C154.783 85.84 154.173 84.41 152.503 84.89C152.523 85.07 150.833 85.19 150.453 85.36C150.013 85.56 150.743 85.88 150.403 85.99C149.833 86.19 148.943 85.64 147.963 85.87C147.583 85.96 146.973 86.35 146.203 86.33C145.143 86.3 147.593 85.66 145.613 85.76C144.553 85.81 144.353 85.31 143.923 85.19C143.653 85.12 139.253 86.2 139.203 85.83C139.113 85.2 136.903 85.99 136.593 86C135.853 86.03 136.223 85.65 135.123 85.97C134.723 85.98 134.213 86.21 133.573 86.17C133.203 86.14 133.203 85.63 132.723 85.53C132.763 85.82 130.833 85.89 130.453 86.2C130.813 85.9 127.063 85.62 126.923 86.11C126.863 85.89 126.793 85.54 126.813 85.55C126.083 85.42 125.093 85.85 124.453 85.88C123.493 85.92 122.483 85.83 121.663 85.77C121.713 86.17 118.913 86.32 119.133 86.07C119.293 85.88 120.673 86.13 120.763 85.94C120.793 85.88 120.153 85.76 120.713 85.69C122.173 85.5 124.233 85.62 124.503 85.12C124.773 85.27 127.983 85.42 128.233 85.18C128.143 85.09 127.943 85.03 127.623 84.99C127.593 84.98 128.833 85.09 129.003 85.1C128.973 85.1 129.523 84.63 128.763 84.62C127.783 84.61 127.363 84.7 127.323 84.4C127.323 84.37 129.113 83.49 128.953 83.5C128.913 83.21 126.653 83.53 126.273 83.64C125.833 83.77 126.323 83.91 125.923 84.05C124.943 84.38 123.423 83.85 123.233 83.74C123.193 83.87 122.533 84.56 122.173 84.43C121.113 84.04 120.773 84.8 119.623 84.55C117.933 84.18 118.553 84.06 117.123 84.52C116.723 84.65 116.123 84.66 115.553 84.65C116.043 84.64 116.533 84.4 115.063 84.44C115.083 84.59 115.283 84.64 115.493 84.65C114.663 84.64 113.913 84.58 113.933 84.77C113.983 85.16 112.693 84.87 112.363 84.83C112.263 84.82 113.053 85.5 112.873 85.51C111.993 85.39 111.083 84.91 109.873 84.96C109.273 84.81 110.153 84.67 108.793 84.58C107.303 84.48 103.653 84.97 103.463 85.31C103.453 85.33 102.313 84.86 101.863 85.02C101.203 85.24 102.063 85.33 100.573 85.4C100.463 85.36 100.303 85.34 100.103 85.35C99.4534 85.5 100.253 86.1 99.9334 86.31C99.3634 86.71 101.633 86.42 102.823 86.33C103.813 86.25 107.233 86 107.853 86.28C108.323 86.49 105.583 86.67 105.193 86.73C104.343 86.87 105.823 87 104.463 87.23C103.703 87.36 102.773 87.1 102.263 87.07C101.693 87.09 101.213 87.16 100.803 87.26C99.2934 87.44 97.9134 86.96 96.4134 87.21C95.5634 87.35 96.8834 87.77 95.6434 87.83C96.1634 87.15 93.8434 87.51 93.8034 87.23C93.8334 87.46 93.8634 87.69 93.8934 87.91C93.5834 87.86 90.9034 87.4 90.9134 87.48C90.8634 87.13 88.8534 87.32 88.4734 86.88C88.6234 87.05 86.3734 87.42 86.5734 87.24C86.9034 86.96 89.7434 86.61 88.4234 86.37C86.8534 86.08 84.4934 86.38 82.7134 86.26C81.6834 86.19 81.0434 85.93 80.1634 85.79C80.0534 86 79.7034 86.22 79.0734 86.39C77.8234 85.89 74.0234 86.54 74.0034 86.54C73.4634 86.42 73.8934 86.01 72.5234 86.13C71.5034 86.22 70.4534 86.53 70.2834 86.78C69.9234 87.34 69.2134 86.95 69.3634 86.57C69.4334 86.4 64.6834 86.59 63.8534 86.51C62.2734 86.35 59.7234 86 60.7834 86.74C60.9734 86.88 58.9834 86.6 59.0834 86.58C58.1934 86.73 60.0734 87.64 56.6934 87.02C55.5234 86.81 56.0934 86.67 54.1634 86.72C53.2634 86.75 53.0634 86.7 52.7934 86.55C53.2534 87.39 49.9634 86.53 48.8934 86.64C48.6034 86.67 48.6234 87.41 47.8534 87.59C48.6534 87.41 45.3834 86.74 45.2834 86.82C44.8734 87.17 45.3734 87.53 47.0634 87.33C47.1634 88.03 42.4134 86.91 43.4534 86.89C41.1634 86.92 43.8134 88.07 43.0334 88.26C42.2134 88.45 40.6834 87.35 39.8934 87.28C38.9334 87.2 39.0734 87.52 39.2934 87.79C38.0734 87.23 33.2634 89.01 33.1034 87.84C33.9934 87.35 30.7434 87.64 30.7634 87.81C30.7734 87.91 28.4234 88.44 28.2234 88.45C26.7334 88.52 27.9634 87.81 29.5834 87.73C29.6934 87.57 29.5434 87.36 28.7534 87.37C28.2334 87.37 25.4534 87.42 25.4834 87.65C25.4834 87.68 24.4534 88.22 24.1234 88.02C23.6634 87.74 22.3834 88.16 21.8034 87.99C20.5534 87.62 21.6534 88.1 20.2934 88.17C18.5334 88.54 15.9534 88.35 16.1534 87.81C15.0334 87.86 15.2834 87.91 15.0234 88.1C14.8334 87.99 13.6034 87.7 12.8234 87.84C12.4434 87.9 12.7134 88.27 12.6734 88.34C12.6034 88.47 8.32342 89.14 7.64342 89.17C6.74342 89.21 5.96342 89.46 6.48342 89.77C6.51342 90 6.37342 90.33 7.72342 90.26C9.27342 90.19 8.28342 90.36 8.96342 90.49C9.42342 90.57 10.5234 89.8 10.5634 89.72C9.40342 91.18 17.5434 89.46 17.6334 90.11C17.5834 89.73 21.4134 89.2 21.9034 89.64C22.1734 89.88 22.3934 90.23 22.0234 90.5C21.9434 90.56 21.1334 90.74 20.9734 90.64C20.8634 90.57 21.3334 90.26 20.0234 90.32C18.9734 90.37 19.5134 90.68 18.3034 90.74C17.4534 90.78 13.7034 91.32 13.6434 90.82C14.2034 90.8 14.8434 90.73 15.3834 90.74C15.3634 90.57 9.79342 90.91 9.25342 90.95C6.30342 91.16 9.27342 91.65 7.39342 92.08C7.37342 91.91 6.32342 91.98 5.98342 91.92C5.53342 91.84 5.34342 91.61 4.97342 91.5C3.88342 91.55 5.15342 92.08 3.34342 92.24C3.05342 92.27 1.64342 92.28 1.61342 92.36C1.53342 92.53 2.35342 92.67 2.04342 92.83C1.80342 92.96 0.763418 92.96 0.383418 93.14C-0.046582 93.35 -0.086582 93.6 0.123418 93.8C0.353418 94.01 0.223418 94.71 0.683418 94.83C1.93342 95.15 3.49342 94.73 4.68342 94.68C7.07342 94.57 8.51342 94.48 10.5934 94.13C11.0334 94.11 12.3734 94.01 12.8034 94.08C13.3534 94.18 12.9734 94.43 14.1334 94.37C15.5034 94.31 14.6534 94.03 14.0734 93.96C15.3534 93.9 14.8634 94.14 15.7734 94.14C16.8334 94.14 17.6934 94.01 18.7034 93.96C19.9034 93.9 21.1334 94.3 21.0534 93.72C21.0834 93.94 23.6334 93.77 24.2434 93.8C25.3634 93.86 25.3934 93.72 26.2534 93.47C26.1234 93.51 32.8034 93.32 33.5934 93.27C34.3234 93.22 35.2034 93.1 35.9034 93.08C37.7634 93.04 38.8334 93.31 40.8234 92.98C42.1434 92.92 42.9834 93.06 44.3534 93.04C46.5534 93.01 48.7934 92.88 51.0034 92.78C51.7534 92.74 51.4134 92.49 52.9934 92.48C54.7534 92.48 55.9434 92.41 57.6834 92.32C58.5434 92.07 60.6034 92.27 60.6034 92.32C61.1234 92.03 63.1734 91.93 64.1834 91.96C66.3734 92.01 68.3534 92.03 70.7834 91.95C73.5434 91.86 76.3034 91.7 79.0634 91.6C80.1134 91.56 80.8034 91.68 81.7334 91.56C83.8534 91.29 86.3534 91.21 88.5934 91.21C89.1934 91.21 91.0134 90.98 90.9534 90.98C91.9734 90.99 91.3534 91.15 92.7034 91.04C94.4234 90.89 96.2534 90.83 97.9934 90.78C99.2434 90.75 101.553 90.89 102.673 90.75C103.223 90.68 103.403 90.26 104.413 90.36C105.403 90.47 104.363 90.68 105.943 90.61C108.863 90.47 112.133 89.95 115.413 89.91C116.113 89.9 116.523 90.08 117.183 90.05C117.583 90.03 117.943 89.77 118.673 89.74C118.673 89.73 121.433 89.99 121.333 89.99C121.523 89.98 122.373 89.72 122.923 89.68C124.053 89.61 124.973 89.73 126.073 89.62C127.793 89.45 129.673 89.35 131.453 89.28C131.433 89.12 134.153 89.14 135.063 89.12C135.953 89.1 137.383 89.42 135.793 89.49C136.103 89.48 136.423 89.46 136.733 89.45C136.903 89.48 137.083 89.5 137.253 89.53C137.223 89.53 137.843 89.14 138.583 89.09C139.503 89.03 140.183 89.02 141.033 89.07C141.333 89.09 144.243 88.79 144.223 88.68C143.793 88.69 142.813 88.82 142.793 88.65C142.763 88.45 147.113 88.59 147.583 88.47C148.783 88.15 148.023 88.2 149.083 88.55C149.613 88.73 152.453 87.92 153.603 87.85C155.263 87.74 154.783 88.19 155.833 88.14C154.433 87.17 160.263 88.37 160.443 87.65C160.473 87.87 164.593 88.1 164.523 87.6C165.153 87.34 165.513 87.09 166.243 87.38C166.163 87.33 167.483 87.91 167.443 87.6C169.143 87.1 171.933 87.42 173.183 86.98C173.713 86.84 176.383 85.35 175.573 85.3Z" fill="#333333"/>
<path d="M136.753 89.49C135.593 89.54 137.353 89.6 136.753 89.49V89.49Z" fill="#333333"/>
<path d="M130.503 90.74C130.513 90.79 130.513 90.83 130.523 90.88C133.033 90.76 130.453 90.39 130.503 90.74Z" fill="#333333"/>
<path d="M132.863 90.91C135.043 91.26 132.793 90.4 132.863 90.91V90.91Z" fill="#333333"/>
<path d="M132.863 90.91C132.863 90.91 132.863 90.89 132.853 90.87C132.863 90.87 132.863 90.89 132.863 90.91Z" fill="#333333"/>
<path d="M126.473 91.21C126.503 91.45 129.253 91.11 129.403 90.94C129.493 90.84 126.413 90.73 126.473 91.21Z" fill="#333333"/>
<path d="M124.303 91.12C124.133 91.18 124.083 91.25 124.153 91.32C124.273 92.17 126.953 90.83 124.303 91.12Z" fill="#333333"/>
<path d="M71.0643 15.89C71.3043 14.77 71.5343 13.71 72.1643 12.91C72.3343 12.68 72.5143 12.43 72.7243 12.19C73.2443 12.49 73.9443 12.65 74.7943 12.14C75.3843 11.82 75.9043 11.55 76.4443 11.54C77.0643 11.52 77.4643 11.31 77.7243 11.03C78.1443 11.07 78.5443 10.88 78.8643 10.65L79.3043 10.34C79.8043 9.98 80.8343 9.23 81.2343 9.18C83.0443 9.79 84.2743 9.01 85.1743 8.44C85.5043 8.23 85.8143 8.04 86.1043 7.93L86.3443 7.84C86.4343 7.8 86.5743 7.75 86.6543 7.73C88.0043 8.17 88.9543 7.41 89.5243 6.94C89.7543 6.75 89.9743 6.58 90.1543 6.51C90.4843 6.69 90.9043 6.72 91.3343 6.6C93.1843 6.06 95.1343 5.67 97.4643 5.37C97.7143 5.34 97.9643 5.31 98.2143 5.27L100.314 6.16L99.4543 5.07C101.214 4.76 102.884 4.32 104.494 3.75C106.154 3.66 107.824 3.59 109.484 3.52C111.204 3.45 112.934 3.38 114.654 3.28L114.784 3.26C114.884 3.24 115.124 3.26 115.294 3.27C115.824 3.31 116.474 3.35 116.964 2.89C117.214 2.65 117.364 2.31 117.364 1.94C117.404 1.3 117.144 0.939998 116.914 0.739998C116.384 0.279998 115.734 0.429998 115.334 0.519998C115.284 0.529998 115.224 0.549998 115.174 0.559998C115.074 0.509998 114.974 0.479998 114.884 0.449998C114.134 -0.0900019 113.254 -0.130002 112.474 0.339998L111.134 0.369998C109.574 0.299998 107.954 0.229998 106.314 0.609998C105.744 0.649998 105.144 0.609998 104.504 0.569998C103.464 0.499998 102.394 0.429998 101.314 0.699998C100.814 0.609998 100.454 0.699998 100.184 0.869998L99.9643 0.879998L99.8343 1.13L99.5243 1.22C99.3043 1.07 99.0343 0.989998 98.8043 0.999998L98.5243 1.05C98.3743 1.1 98.1343 1.09 97.8843 1.08C97.3943 1.06 96.7543 1.05 96.1143 1.39C93.8543 1.35 91.6843 1.57 89.8643 2.02C89.3943 2.13 88.9043 2.22 88.4143 2.31C87.1743 2.54 85.8843 2.77 84.5643 3.34C83.3443 3.95 81.9843 4.24 80.6743 4.51C80.3543 4.58 80.0443 4.64 79.6643 4.73L74.1943 6.34L74.1843 6.38C74.1043 6.39 74.0343 6.39 73.9643 6.4C73.4143 6.45 72.8543 6.49 72.4243 6.76C72.4143 6.76 72.3943 6.76 72.3743 6.77C72.0943 6.71 71.8143 6.73 71.5543 6.85C71.3943 6.92 71.2443 7.03 71.1143 7.16C70.9443 7.2 70.7643 7.25 70.5943 7.3C70.4543 7.34 70.2543 7.41 70.2543 7.43L70.1643 7.34C69.5243 6.73 68.8743 6.5 68.2443 6.63C67.3343 6.82 66.8743 7.68 66.5443 8.49C66.4743 8.71 66.3643 8.78 65.6443 8.96C65.4943 9 65.3443 9.03 65.1943 9.08C63.5843 9.35 62.1243 9.93 60.7243 10.49C59.9343 10.8 59.1243 11.13 58.2843 11.39L47.7143 14.99C40.9743 17.39 34.9243 19.99 29.2443 22.95C28.8943 22.97 28.4543 23.03 28.0143 23.32C23.8443 25.37 19.5343 27.49 15.2443 29.49C14.5743 29.83 13.8943 30.17 13.2243 30.52C10.4543 31.94 7.5943 33.4 4.5843 34.35C3.5943 34.57 2.9343 35.36 2.7643 36.58C2.6543 37.7 3.1843 38.91 4.1743 39.8C5.2143 40.73 6.5343 41.14 7.6543 40.9C10.3943 40.47 12.7343 39.1 14.8143 37.72C17.4143 36.16 20.2043 34.64 22.8943 33.17L24.9643 32.04C25.4343 31.77 25.9243 31.54 26.4143 31.3C27.6043 30.72 28.8243 30.13 29.8343 29.14C35.4543 27.16 40.4143 24.77 45.1943 22.44C45.4243 22.51 45.6543 22.51 45.8743 22.46C46.4843 22.32 46.7543 21.82 46.9143 21.5C47.6943 21.67 48.4543 21.2 49.2043 20.75C49.4243 20.61 49.6443 20.48 49.8343 20.38C50.0543 20.31 50.2743 20.25 50.4943 20.2C51.0043 20.07 51.5243 19.93 52.0743 19.69L52.2943 19.65C53.5743 19.43 55.0043 19.18 56.0243 17.95C56.2243 17.91 56.4043 17.86 56.5643 17.81C56.6743 17.77 56.7843 17.74 56.8843 17.72C58.3043 18 59.0143 17.17 59.3943 16.71C59.4443 16.65 59.5243 16.56 59.5743 16.5C59.6343 16.52 59.7543 16.57 59.9343 16.68L60.4543 17L60.9843 16.66C61.2743 16.48 61.5343 16.3 61.7843 16.12C61.9643 15.99 62.1543 15.86 62.3443 15.73C63.0743 15.59 63.7743 15.43 64.4643 15.27C64.5643 15.25 64.6543 15.23 64.7543 15.2C64.7143 15.41 64.6643 15.63 64.6243 15.84C64.3343 17.28 64.0743 18.64 63.6043 19.93C62.9243 21.94 62.4043 23.99 61.9843 26.39C61.6843 26.97 61.5643 27.52 61.4743 28.03C61.1243 28.57 60.6643 29.33 60.8943 30.31C60.6743 30.68 60.5843 31.07 60.5243 31.37C60.2443 33.1 59.7443 34.85 59.2443 36.48C58.5743 38.62 57.9343 40.78 57.2843 42.94C56.6743 44.99 56.0643 47.03 55.4343 49.05C54.9043 49.59 54.9743 50.28 55.0043 50.6C55.0043 50.61 55.0043 50.62 55.0043 50.63C54.3843 51.56 54.2743 52.61 54.1943 53.56C54.0643 53.94 53.9343 54.31 53.7943 54.69C53.3643 55.85 52.9243 57.05 52.7743 58.34C51.9643 60.63 51.1543 63.07 50.7643 65.61C50.2643 66.54 50.0243 67.66 50.1043 68.74C49.6343 69.64 49.4343 70.58 49.2543 71.49C48.8143 72.27 48.7143 73.06 48.6143 73.77C48.5643 74.14 48.5243 74.5 48.4143 74.88L47.9843 76.83C47.1343 80.65 46.2543 84.61 45.9643 88.66C45.9343 88.81 45.9043 88.95 45.8643 89.1C45.6543 90.04 45.3843 91.2 45.8843 92.49L46.6543 94.44L47.6843 92.61C47.7743 92.46 47.9043 92.3 48.0543 92.14C48.3343 91.83 48.6443 91.49 48.7543 90.98L48.7743 90.85C48.9043 89.38 49.4143 87.97 49.9443 86.47L50.2443 85.6C50.5543 84.69 50.7643 83.79 50.9643 82.91C51.2543 81.67 51.5143 80.5 52.0343 79.47C52.9143 77.72 53.3343 75.91 53.7243 74.14C53.8943 73.84 54.1343 73.37 54.2643 72.81C54.4843 72.2 54.7343 71.6 54.9943 71C55.5743 69.61 56.1843 68.17 56.4643 66.54L56.5043 66.31L56.4343 66.09C56.2543 65.47 56.9443 64.19 57.3943 63.33C57.8643 62.44 58.2443 61.74 58.2243 61.02C58.1443 60.24 58.4743 59.52 58.8543 58.68C59.0543 58.23 59.2643 57.77 59.3943 57.33C60.6443 53.98 61.5643 50.49 62.4643 47.08C62.9043 46.29 63.1643 45.46 63.4243 44.65C63.6743 43.87 63.9043 43.13 64.3143 42.42C64.9343 41.09 65.0443 39.75 65.1443 38.44C65.2343 37.34 65.3143 36.29 65.7243 35.32C67.0843 31.69 67.9843 27.95 68.8543 24.34C69.3943 22.09 69.9543 19.76 70.6243 17.5C70.8243 16.99 70.9443 16.43 71.0643 15.89ZM61.0043 37.87L60.9943 37.59V37.58L61.0043 37.87C61.0043 37.87 61.0143 37.86 61.0043 37.87Z" fill="#333333"/>
<path d="M217.444 38.18C216.084 34.74 212.654 31.55 210.074 32.43L208.304 33.03L209.794 34.17C212.604 36.32 213.274 38.58 212.014 41.72C210.204 46.47 207.364 49.42 203.354 50.7C203.394 50.46 203.454 50.21 203.534 49.93L203.544 49.87C203.934 48.73 204.434 47.66 204.924 46.62C205.314 45.79 205.714 44.94 206.034 44.1C206.524 42.93 205.904 42.2 205.604 41.85C205.574 41.81 205.534 41.77 205.504 41.73L205.454 39.65L203.984 40.97C203.944 40.95 203.894 40.93 203.854 40.92C203.394 40.74 202.004 40.17 201.074 41.9C200.644 42.74 200.244 43.6 199.834 44.46C198.844 46.55 197.814 48.71 196.524 50.61L196.264 50.94C195.984 51.31 195.714 51.66 195.424 51.99C195.914 50.27 196.704 48.61 197.464 47C198.014 45.85 198.574 44.67 199.034 43.46C199.574 42.05 200.584 40.09 202.294 38.85C202.894 38.45 203.234 37.87 203.244 37.21C203.254 36.4 202.784 35.59 201.934 34.99C201.184 34.45 200.344 34.26 199.504 34.41C198.484 34.6 197.514 35.33 196.754 36.48C196.464 36.95 196.164 37.41 195.854 37.89C194.864 39.4 193.844 40.96 193.264 42.75C193.164 43.02 192.994 43.31 192.804 43.61C192.664 43.63 192.524 43.65 192.384 43.66C192.814 40.92 192.654 38.12 191.874 35.1C191.424 33.61 190.554 32.88 189.384 32.25C187.744 31.12 186.064 31.36 184.484 31.8L184.114 31.9L182.844 33.92L182.734 34.16C182.654 34.42 182.604 34.69 182.554 34.93C182.534 35.03 182.514 35.15 182.484 35.24C181.594 35.7 180.884 36.32 180.234 36.98C180.194 36.44 179.904 35.93 179.394 35.61L179.194 35.51C177.284 34.78 175.314 34.03 173.264 33.62C171.614 33.25 169.964 33.79 168.534 35.16C167.824 35.78 167.194 36.45 166.604 37.15C166.764 36.32 166.874 35.5 166.994 34.69C167.144 33.64 167.284 32.65 167.504 31.65C167.664 30.94 167.434 30.19 166.884 29.59C166.284 28.94 165.394 28.6 164.494 28.72C160.254 29.66 157.364 31.99 154.534 34.51C153.744 35.21 152.994 35.94 152.224 36.71C152.144 34.96 151.464 33.71 150.064 32.46C149.134 31.57 147.284 31.7 146.274 32.08C145.114 32.51 144.884 33.23 144.844 33.62C144.774 34.29 144.554 34.81 144.104 35.64C143.744 36.41 143.694 37.03 143.954 37.54C144.084 37.78 144.264 37.97 144.494 38.1C144.314 38.55 144.214 39.01 144.114 39.42C144.064 39.65 144.004 39.89 143.944 40.1L143.914 40.25C143.834 40.82 143.104 42.8 142.324 44.81C142.124 44.84 141.924 44.87 141.734 44.89C142.164 42.15 142.004 39.35 141.224 36.33C140.774 34.84 139.904 34.1 138.734 33.48C137.094 32.35 135.414 32.59 133.834 33.03L133.464 33.13L132.194 35.15L132.084 35.39C132.004 35.65 131.954 35.92 131.904 36.16C131.884 36.26 131.864 36.38 131.834 36.47C130.524 37.15 129.604 38.15 128.714 39.13C128.384 39.49 128.054 39.85 127.704 40.19C127.014 40.87 126.424 41.59 125.894 42.35C124.084 43.46 121.254 46.29 119.614 48.32C121.174 44.99 122.764 41.59 124.334 38.15C124.764 37.3 125.254 36.47 125.774 35.59C126.924 33.64 128.114 31.62 128.674 29.28C128.914 29.12 129.274 28.8 129.244 28.24C129.234 28.01 129.134 27.6 128.574 27.29C128.544 27.24 128.524 27.19 128.504 27.14C128.354 26.83 127.884 25.87 126.734 26.1C126.494 26.15 126.244 26.18 126.004 26.21C125.104 26.32 123.984 26.46 122.994 27.63C122.304 28.47 121.594 29.18 120.894 29.74C119.204 31.01 118.944 31.73 118.494 33.62C118.364 33.71 118.224 33.84 118.104 34.03C117.564 34.67 116.894 35.16 116.194 35.68C115.354 36.3 114.484 36.94 113.794 37.87C111.124 41.38 108.684 44.82 106.094 48.46C106.244 48.15 106.384 47.84 106.514 47.54C107.194 46.01 108.024 44.51 108.834 43.07C110.134 40.74 111.484 38.33 112.264 35.61C112.594 34.65 113.164 33.03 111.914 31.85C110.584 30.59 108.114 31.03 106.774 32.27C102.634 36.19 99.0143 40.55 95.9643 45.28C97.3443 42.63 99.1243 39.98 101.394 37.19C101.434 37.15 101.494 37.1 101.564 37.06C101.884 36.82 102.414 36.41 102.484 35.71C102.514 35.41 102.464 34.96 102.064 34.51C102.004 34.43 101.944 34.35 101.884 34.27C101.514 33.73 100.744 32.62 98.8443 33.31L98.3943 33.52C97.5443 33.91 96.7443 34.29 95.9243 34.94L95.8443 35.01C94.3743 36.45 93.2543 38.15 92.1643 39.79L91.6643 40.55C90.2543 42.46 89.3243 44.29 88.8043 46.18C88.6743 46.2 88.5443 46.22 88.4243 46.23C88.8543 43.49 88.6943 40.69 87.9143 37.67C87.4643 36.18 86.5943 35.44 85.4243 34.82C83.7843 33.69 82.1043 33.93 80.5243 34.37L80.1543 34.47L78.8843 36.49L78.7743 36.73C78.6943 36.99 78.6443 37.26 78.5943 37.5C78.5743 37.6 78.5543 37.72 78.5243 37.81C77.2243 38.49 76.2943 39.49 75.4043 40.47C75.0743 40.83 74.7443 41.19 74.3943 41.53C71.1443 44.72 69.6943 48.82 69.9543 54.05C70.0743 56.19 71.0743 58.08 72.7043 59.24C73.7943 60.01 75.0543 60.4 76.3943 60.4C77.0743 60.4 77.7643 60.3 78.4643 60.09C82.3443 58.91 84.4343 55.67 85.6943 53.29C86.2043 52.2 86.7643 51.06 87.5943 50.03C87.7543 49.98 87.9243 49.91 88.1043 49.83C88.0543 50.08 88.0143 50.33 87.9643 50.58C87.7943 51.48 87.6143 52.37 87.4643 53.33C87.3843 54.09 87.6443 55.32 87.9343 56.53C87.9643 56.65 87.9843 56.75 87.9843 56.75C88.0743 57.56 88.2843 58.06 88.4743 58.5C88.6143 58.84 88.7343 59.13 88.8243 59.53C89.0143 60.78 89.9843 61.64 91.1843 61.64C91.2643 61.64 91.3343 61.64 91.4143 61.63L91.6843 61.61L91.8443 61.5C92.0743 61.44 92.7343 61.43 93.0743 61.49C94.1543 61.66 94.7543 61.3 95.0643 60.97C95.6543 60.34 95.5143 59.54 95.4743 59.39L95.2443 58.34L94.7243 58.49C94.7443 58.31 94.7643 58.14 94.7743 58C94.8943 57.26 95.2743 56.52 95.6843 55.73C95.8443 55.42 96.0043 55.11 96.1543 54.8C97.0143 53.01 97.9843 51.29 99.0043 49.62C98.4943 51.05 97.9743 52.66 98.4943 54.42C99.4043 57.71 101.484 58.46 103.064 58.5C105.404 58.58 107.274 57.37 108.374 55.02C109.074 53.4 109.684 52.14 110.304 51C111.534 49.02 112.874 47.04 114.304 45.07C114.044 45.8 113.734 46.53 113.444 47.23C112.824 48.72 112.184 50.27 111.844 51.96C111.304 54.52 112.084 56.53 114.144 57.93C115.484 58.88 117.524 59.49 118.894 58.05C119.204 57.73 119.514 57.56 119.984 57.36L120.334 57.21L120.494 56.87C120.514 56.82 120.544 56.79 120.534 56.79L120.954 56.35L120.884 56.14C121.234 55.5 122.174 53.98 123.024 52.61C123.104 52.47 123.184 52.36 123.264 52.22C123.264 52.39 123.264 52.55 123.264 52.72C123.384 54.86 124.384 56.75 126.014 57.91C127.104 58.68 128.364 59.07 129.704 59.07C130.384 59.07 131.074 58.97 131.774 58.76C135.654 57.58 137.744 54.34 139.004 51.96C139.444 51.03 139.934 50.06 140.574 49.16C140.574 49.17 140.564 49.17 140.564 49.18C140.204 50.02 139.994 50.88 139.794 51.72C139.674 52.2 139.554 52.7 139.384 53.26C139.304 53.64 139.284 54 139.264 54.35C139.234 54.95 139.194 55.34 138.954 55.69L138.894 55.78C138.354 56.74 138.314 57.81 138.284 58.74C138.274 59.16 138.254 59.55 138.214 59.84C138.104 60.34 138.124 61.23 139.534 61.65C140.504 62 141.534 61.87 142.364 61.32C143.234 60.74 143.754 59.78 143.804 58.73C143.874 57.96 144.094 57.21 144.484 56.36C144.994 55.51 145.424 54.62 145.854 53.75C146.544 52.34 147.194 51.01 148.124 49.84C149.004 48.75 149.844 47.59 150.654 46.47C152.044 44.54 153.484 42.55 155.164 40.86C156.404 39.56 157.724 38.32 158.994 37.12C159.724 36.44 160.464 35.74 161.194 35.03C160.864 36.32 160.544 37.61 160.224 38.9C159.354 42.37 158.464 45.97 157.484 49.48C156.884 51.82 156.074 54.23 155.294 56.56C154.894 57.76 154.484 58.96 154.104 60.18C153.814 61.2 154.184 62.09 155.074 62.51C155.434 62.68 155.874 62.76 156.354 62.76C157.884 62.76 159.774 61.95 160.564 60.77C161.284 59.63 161.654 58.59 161.754 57.35C161.764 57.3 161.824 57.17 161.864 57.08C162.314 56.13 162.714 55.17 163.124 54.2C163.854 52.47 164.604 50.68 165.604 48.99C166.174 48.08 166.724 47.16 167.284 46.24C168.694 43.91 170.154 41.49 171.764 39.24C172.714 37.9 173.364 37.77 174.144 37.97C175.364 38.38 176.744 38.84 178.454 38.5C178.564 38.53 178.664 38.55 178.764 38.56C178.634 38.69 178.514 38.83 178.374 38.97C175.124 42.16 173.674 46.26 173.934 51.49C174.054 53.63 175.054 55.52 176.684 56.68C177.774 57.45 179.034 57.84 180.374 57.84C181.054 57.84 181.744 57.74 182.444 57.53C186.324 56.35 188.414 53.11 189.674 50.73C189.984 50.07 190.314 49.4 190.714 48.74C190.094 50.22 190.034 51.66 189.984 53.07L189.964 53.72C190.024 56.12 191.334 57.7 193.984 58.56C194.244 58.64 194.494 58.67 194.734 58.67C195.774 58.67 196.624 58.02 197.274 57.52L197.484 57.36C198.404 56.71 199.054 55.92 199.674 55.15L200.114 54.61C200.194 54.49 200.264 54.41 200.324 54.36C201.664 55.84 203.284 55.71 204.574 55.6C204.974 55.57 205.344 55.54 205.754 55.55C206.514 55.53 207.784 55.5 208.854 54.53C209.334 54.06 209.824 53.59 210.324 53.13C211.994 51.57 213.724 49.95 215.014 47.71L216.564 45.97L216.694 45.79C216.764 45.66 218.914 41.76 217.444 38.18ZM76.0043 55.29C75.4643 55.47 75.3043 55.39 75.3043 55.39C75.3043 55.39 75.1343 55.26 75.0643 54.61C74.9843 51.37 76.6843 48.71 78.4243 46.25L78.4643 46.19C78.5143 46.32 78.5643 46.44 78.6243 46.56L77.5243 48.46L79.0243 47.25C79.7943 48.37 80.9543 49.13 82.0343 49.84C80.3543 52.65 78.4643 54.35 76.0043 55.29ZM83.9843 45.75C83.9243 45.92 83.8843 46.11 83.8543 46.29C83.6143 46.17 83.3543 45.94 83.0543 45.58C83.0343 45.56 83.0243 45.54 83.0143 45.53C83.0343 45.51 83.0643 45.47 83.1143 45.43L83.1943 45.35C83.5343 44.99 83.8843 44.62 84.2243 44.23C84.1843 44.77 84.1043 45.28 83.9843 45.75ZM129.324 53.96C128.784 54.14 128.624 54.06 128.624 54.06C128.624 54.06 128.454 53.93 128.384 53.28C128.304 50.04 130.004 47.38 131.744 44.92L131.784 44.86C131.834 44.99 131.884 45.11 131.944 45.23L130.844 47.12L132.334 45.91C133.104 47.03 134.264 47.79 135.344 48.5C133.674 51.32 131.774 53.02 129.324 53.96ZM137.304 44.42C137.244 44.59 137.204 44.78 137.174 44.96C136.934 44.84 136.674 44.61 136.374 44.25C136.354 44.23 136.344 44.21 136.334 44.2C136.354 44.18 136.384 44.14 136.434 44.1L136.514 44.02C136.854 43.66 137.204 43.29 137.544 42.9C137.504 43.45 137.424 43.95 137.304 44.42ZM179.974 52.7C179.434 52.88 179.274 52.8 179.274 52.8C179.274 52.8 179.094 52.67 179.034 52.02C178.954 48.78 180.654 46.11 182.394 43.66L182.434 43.6C182.484 43.73 182.534 43.85 182.594 43.97L181.494 45.86L182.994 44.65C183.764 45.77 184.924 46.53 186.004 47.24C184.324 50.06 182.434 51.76 179.974 52.7ZM187.954 43.16C187.894 43.33 187.854 43.52 187.824 43.7C187.584 43.57 187.324 43.35 187.024 42.99C187.004 42.97 186.994 42.95 186.984 42.94C187.004 42.92 187.034 42.88 187.084 42.84L187.164 42.76C187.504 42.4 187.854 42.03 188.194 41.64C188.154 42.18 188.074 42.68 187.954 43.16Z" fill="#333333"/>
</svg>
